<svg width="512" height="512" viewBox="0 0 512 512" fill="none" xmlns="http://www.w3.org/2000/svg">
  <path
    d="M510.973 264.005C524.853 385.118 395.881 446.828 254.62 446.828C114.319 451.442 0 362.427 0 264.005C0 165.582 69.2845 65.609 237.299 65.6091C400.118 59.8421 491.342 92.7159 510.973 264.005Z"
    fill="white" />
  <path
    d="M484 281.756C484 345.475 401.36 397.13 280 397.13C125.7 410.975 76 345.475 76 281.756C76 218.036 192.184 126 304.85 126C417.516 126 484 218.036 484 281.756Z"
    fill="black" />
  <path
    d="M274.475 316.426C270.43 325.672 230.497 323.477 194.155 316.426C157.813 309.376 138.969 296.238 140.993 285.801C143.018 275.364 175.726 275.861 212.068 282.911C248.41 289.962 274.475 306.603 274.475 316.426Z"
    fill="#6BB1F9" />
  <path
    d="M426.447 252.863C431.648 262.109 422.402 279.091 386.16 299.045C355.541 315.902 328.685 321.632 323.591 312.381C323.591 303.135 345.556 283.011 376.175 266.154C406.794 249.297 422.402 247.085 426.447 252.863Z"
    fill="#6BB1F9" />
</svg>