<svg viewBox="0 0 394 103" fill="currentColor"
  xmlns="http://www.w3.org/2000/svg">
  <path
    d="M21.248 103.896C15.5307 103.469 11.4133 101.784 8.896 98.84C6.42133 95.8533 5.056 91.2027 4.8 84.888C4.75733 82.584 4.71467 80.408 4.672 78.36C4.672 76.312 4.69333 74.264 4.736 72.216C4.82133 70.168 4.928 67.9707 5.056 65.624H15.68C15.5093 69.2507 15.4027 72.856 15.36 76.44C15.36 79.9813 15.4667 83.416 15.68 86.744C15.7653 88.9627 16.256 90.6907 17.152 91.928C18.048 93.1653 19.4133 93.976 21.248 94.36V103.896ZM27.072 103.832V94.36C28.736 93.9333 29.9733 93.1013 30.784 91.864C31.5947 90.6267 32.064 88.92 32.192 86.744C32.32 84.568 32.4053 82.6053 32.448 80.856C32.4907 79.064 32.4907 77.2507 32.448 75.416C32.4053 73.5387 32.32 71.4267 32.192 69.08C32.064 66.264 31.5733 63.8747 30.72 61.912C29.9093 59.9067 28.3307 58.6053 25.984 58.008L18.368 56.024C14.784 55.128 12.0107 53.8053 10.048 52.056C8.128 50.264 6.76267 47.96 5.952 45.144C5.14133 42.328 4.672 38.9147 4.544 34.904C4.50133 32.344 4.48 29.656 4.48 26.84C4.52267 24.024 4.56533 21.2507 4.608 18.52C4.77867 12.248 6.12267 7.66133 8.64 4.75999C11.1573 1.81599 15.3387 0.130661 21.184 -0.296005V9.24C19.392 9.624 18.0693 10.4347 17.216 11.672C16.4053 12.8667 15.936 14.5733 15.808 16.792C15.5947 19.7787 15.488 22.7867 15.488 25.816C15.5307 28.8453 15.6373 31.8747 15.808 34.904C15.936 38.1467 16.4053 40.664 17.216 42.456C18.0693 44.248 19.7333 45.4427 22.208 46.04L29.248 47.768C32.96 48.6213 35.8187 49.9867 37.824 51.864C39.8293 53.6987 41.2373 56.0453 42.048 58.904C42.8587 61.72 43.328 65.112 43.456 69.08C43.5413 71.2987 43.584 73.2187 43.584 74.84C43.584 76.4613 43.5627 78.0613 43.52 79.64C43.4773 81.176 43.4347 82.9253 43.392 84.888C43.136 91.16 41.7493 95.7893 39.232 98.776C36.7573 101.763 32.704 103.448 27.072 103.832ZM32.064 36.824C32.192 33.496 32.2773 30.168 32.32 26.84C32.3627 23.4693 32.32 20.12 32.192 16.792C32.1067 14.616 31.6373 12.9307 30.784 11.736C29.9307 10.4987 28.6507 9.688 26.944 9.30399V-0.232002C32.4053 0.151995 36.3733 1.83733 38.848 4.824C41.3653 7.768 42.752 12.376 43.008 18.648C43.0933 20.8667 43.1147 23.5973 43.072 26.84C43.0293 30.0827 42.944 33.4107 42.816 36.824H32.064ZM60.611 103V0.599998H71.811V103H60.611ZM77.507 103V93.016H93.379V103H77.507ZM77.507 56.28V46.296H92.099V56.28H77.507ZM77.507 10.584V0.599998H93.379V10.584H77.507ZM133.203 103L127.251 67.096L120.275 10.52H109.011V0.599998H127.571L132.947 33.048L141.331 93.016H152.403V103H133.203ZM109.011 103V15.448H117.203L118.995 66.52L119.827 103H109.011ZM144.147 88.024L142.035 34.648L141.523 0.599998H152.403V88.024H144.147ZM179.792 103V15.128H190.992V103H179.792ZM165.904 10.584V0.599998H204.816V10.584H165.904ZM218.311 103V0.599998H229.511V103H218.311ZM272.778 103L266.826 67.096L259.85 10.52H248.586V0.599998H267.146L272.522 33.048L280.906 93.016H291.978V103H272.778ZM248.586 103V15.448H256.778L258.57 66.52L259.402 103H248.586ZM283.722 88.024L281.61 34.648L281.098 0.599998H291.978V88.024H283.722ZM311.111 103V0.599998H322.311V103H311.111ZM328.007 103V93.016H343.879V103H328.007ZM328.007 56.28V46.296H342.599V56.28H328.007ZM328.007 10.584V0.599998H343.879V10.584H328.007ZM359.511 103V0.599998H370.711V103H359.511ZM376.471 103V93.016H392.343V103H376.471Z"
  />
</svg>