<svg width="512" height="512" viewBox="0 0 512 512" fill="none" xmlns="http://www.w3.org/2000/svg">
<path d="M431.349 172.057C431.349 259.226 381.827 331.448 286.185 331.448C190.544 331.448 83.223 247.222 83.223 160.052C83.223 72.8824 162.089 1.32812 257.731 1.32812C362.213 1.32812 434.684 84.6917 431.349 172.057Z" fill="white"/>
<path d="M348.208 327.002L346.874 331.448L343.54 329.892L344.206 327.669L348.208 327.002Z" fill="white"/>
<path d="M301.08 304.549L309.972 299.658H316.863L327.756 310.106L346.652 334.56L361.546 363.237L367.771 387.69L363.769 409.031L348.43 421.702L331.091 424.815L319.309 412.81L307.749 383.244L298.19 352.566L295.967 319.888L301.08 304.549Z" fill="white"/>
<path d="M184.148 338.783L161.918 389.468L175.479 443.043L188.595 475.722L204.156 498.619L218.383 508.623L241.28 510.846L264.177 501.509L284.185 481.946L300.857 459.049L320.198 415.033L309.972 389.468L300.857 364.126L297.745 342.34L294.411 335.671L268.179 331.225L206.156 313.441L192.374 308.55L184.148 338.783Z" fill="white"/>
<path d="M121.014 416.145L129.017 432.596H137.909L147.691 420.369L156.361 400.584L168.143 377.242L179.48 350.566L186.371 329.002L192.818 307.884L156.361 283.875L152.359 286.543L136.131 316.776L124.127 357.235L121.014 386.579V416.145Z" fill="white"/>
<path d="M231.772 1.15059C212.328 3.40326 194.84 8.08647 176.522 15.9115C167.926 19.5869 157.315 25.4557 154.055 28.3012C152.691 29.4868 150.261 31.3838 148.719 32.5101C138.523 39.7423 127.971 48.9902 120.442 57.2895C102.777 76.6743 93.4104 92.9765 86.4153 116.689C82.0878 131.509 81.495 135.066 81.08 148.7C80.9022 156.466 81.0207 163.165 81.4357 167.077C84.5776 195.236 96.1966 222.149 114.751 244.32C122.162 253.272 144.866 276.806 151.031 281.963L153.284 283.86L150.32 287.714C146.17 293.168 143.028 298.621 139.353 307.098C130.698 327.135 123.11 352.211 120.68 369.284C119.672 376.338 119.435 380.903 119.435 393.411C119.435 410.188 119.968 415.642 122.162 422.696C123.762 427.794 127.793 434.256 130.164 435.56C133.01 437.16 136.033 435.678 141.961 429.81C147.534 424.178 150.142 419.85 156.129 405.801C157.73 402.125 159.568 398.035 160.161 396.79L161.346 394.597L162.65 401.296C165.97 418.072 174.447 447.297 179.664 460.221C183.28 468.994 189.801 481.443 194.603 488.675C196.796 492.054 200.827 496.915 203.85 499.998C208.415 504.503 210.134 505.807 214.877 508.179C219.975 510.669 221.101 510.965 227.029 511.558C239.537 512.803 247.481 511.498 257.262 506.637C265.502 502.488 270.186 499.464 274.335 495.552C278.544 491.58 290.934 476.226 296.328 468.401C303.679 457.553 312.571 439.887 317.195 426.846L320.574 417.124L322.115 419.139C325.732 423.763 330.059 426.608 334.446 427.142C339.84 427.735 348.08 424.474 355.787 418.665C362.723 413.33 366.102 408.291 367.821 400.525C368.769 396.197 368.295 381.259 366.991 375.153C364.62 364.304 359.403 351.737 352.467 340.296L348.792 334.19L350.57 327.076C351.578 323.164 352.408 319.488 352.408 318.955C352.408 318.303 354.305 316.939 358.158 314.983C371.793 307.928 377.602 303.542 389.873 291.152C405.464 275.383 410.266 268.27 419.869 246.395C428.584 226.655 431.844 210.708 431.844 187.529C431.844 166.07 430.362 140.223 428.584 131.213C423.841 106.907 413.823 85.1514 398.706 66.3001C371.852 32.8658 332.43 10.4577 286.606 2.51404C270.541 -0.212869 248.37 -0.805669 231.772 1.15059ZM276.825 4.35179C318.381 9.33137 355.787 26.7599 383.412 54.029C393.371 63.9289 400.485 72.7617 406.946 83.4915C417.083 100.209 424.019 119.475 426.568 137.733C427.28 143.009 428.88 177.748 428.88 189.011C428.88 212.249 423.486 232.464 410.444 258.548C402.144 275.087 381.633 297.021 365.687 306.506C358.336 310.774 338.24 320.496 337.884 319.844C337.884 319.785 336.165 317.769 334.09 315.398C332.015 313.027 330.415 311.011 330.533 310.892C330.652 310.833 332.371 310.418 334.327 309.944C339.84 308.758 354.483 303.601 360.411 300.755C374.994 293.76 389.043 281.845 398.291 268.744C405.761 258.133 412.222 243.49 414.712 231.575C416.49 222.742 416.55 204.661 414.712 197.133C411.392 183.142 402.382 171.583 387.739 162.513C369.303 151.072 347.725 145.499 319.211 144.729C296.447 144.136 278.603 146.507 255.484 153.146C244.161 156.407 237.7 158.897 225.844 164.706C193.951 180.238 172.787 203.298 169.171 226.417C167.867 234.717 169.23 245.15 172.491 252.382C179.782 268.27 201.538 285.876 226.318 295.776C236.633 299.926 257.499 306.802 264.672 308.343C271.016 309.766 283.82 311.722 292.416 312.612C294.431 312.849 296.091 313.204 296.091 313.382C296.091 313.619 295.795 314.864 295.439 316.168C295.024 317.473 294.609 320.674 294.372 323.282L294.016 328.025L282.16 327.906C239.775 327.61 193.061 310.952 160.516 284.513C151.268 276.984 142.91 268.981 132.121 257.303C118.368 242.423 115.937 239.518 110.602 231.693C90.2093 201.757 81.7914 168.026 86.5339 135.066C88.253 123.15 93.8847 106.196 100.702 92.2651C110.602 71.8725 128.386 51.8356 151.624 34.8813C153.225 33.755 155.892 31.6802 157.552 30.2574C161.465 26.997 178.36 18.6977 189.03 14.7259C198.041 11.4062 214.106 7.07868 223.472 5.53738C239.715 2.86975 260.582 2.39552 276.825 4.35179ZM161.05 289.966C167.689 294.946 176.403 300.637 183.932 304.905L190.097 308.343L189.682 311.604C188.675 319.488 181.324 343.082 175.751 356.124C173.854 360.57 168.519 372.07 163.895 381.674C159.271 391.277 153.936 402.718 152.039 407.046C150.142 411.433 147.415 417.005 145.992 419.435C142.317 425.956 135.381 432.655 132.358 432.655C129.927 432.655 125.363 423.822 123.821 416.056C122.992 412.025 122.754 407.639 122.754 394.123C122.695 379.243 122.873 376.161 124.059 368.454C127.556 345.987 141.013 307.039 149.846 293.938C151.802 290.974 155.537 286.232 155.892 286.232C156.011 286.232 158.323 287.951 161.05 289.966ZM314.824 302.83C320.811 305.794 326.265 310.892 335.869 322.393C340.73 328.143 351.993 345.631 355.491 352.626C361.419 364.719 364.323 375.212 365.213 387.957C365.687 395.19 364.798 400.94 362.426 405.919C358.514 414.219 346.243 422.755 336.995 423.585C331.126 424.119 326.68 420.858 321.345 411.966C312.571 397.442 300.063 358.495 298.166 339.881C297.04 328.736 297.099 323.045 298.462 317.235C300.004 310.477 301.723 306.861 304.509 304.253C308.481 300.518 309.844 300.281 314.824 302.83ZM203.317 314.39C212.802 318.599 229.4 324.112 238.885 326.246C242.798 327.135 250.564 329.032 256.077 330.455C266.747 333.123 277.359 335.316 288.088 336.917L294.669 337.924L295.321 343.675C297.218 359.384 309.785 398.865 316.602 410.603C318.084 413.092 318.084 413.152 317.136 416.531C313.52 429.039 307.829 442.199 299.945 456.071C294.846 465.141 292.475 468.52 282.16 481.562C273.327 492.766 270.245 495.611 262.361 500.235C250.919 506.875 244.813 508.772 235.032 508.653C220.805 508.594 214.877 506.341 206.222 497.627C195.966 487.312 186.363 470.12 179.249 449.313C171.602 426.846 164.488 398.332 164.488 389.914C164.488 388.372 166.266 384.104 170.475 375.39C173.736 368.573 177.708 359.918 179.308 356.183C184.169 344.445 191.698 320.437 192.706 313.323C193.18 309.825 192.765 309.766 203.317 314.39ZM348.436 321.207C348.08 322.511 344.464 325.95 343.397 325.95C342.745 325.95 341.204 324.231 341.145 323.401C341.145 322.926 346.895 320.14 348.08 320.081C348.436 320.022 348.614 320.496 348.436 321.207ZM346.658 329.566C346.421 330.337 346.124 330.574 345.769 330.218C345.116 329.566 345.591 328.321 346.48 328.321C346.717 328.321 346.836 328.855 346.658 329.566ZM294.313 333.063C294.313 334.427 293.542 334.368 283.642 332.767L279.196 331.996L286.784 331.937C293.957 331.878 294.313 331.937 294.313 333.063Z" fill="black"/>
<path d="M299.301 250.752C299.301 254.309 287.075 234.079 266.845 232.523C256.619 229.633 234.833 230.967 227.72 230.967C231.499 224.076 237.433 217.407 259.287 217.407C274.403 220.074 289.075 227.633 299.301 250.752Z" fill="#6BB1F9"/>
<path d="M326.422 252.665C326.422 255.288 338.958 242.34 355.544 241.192C363.928 239.061 378.611 246.083 384.443 246.083C384.443 231.189 376.218 229.411 364.881 227.632C352.487 229.599 336.648 240.081 326.422 252.665Z" fill="#6BB1F9"/>
</svg>
