<?xml version="1.0" standalone="no"?>
<!DOCTYPE svg PUBLIC "-//W3C//DTD SVG 20010904//EN"
 "http://www.w3.org/TR/2001/REC-SVG-20010904/DTD/svg10.dtd">
<svg version="1.0" xmlns="http://www.w3.org/2000/svg"
 width="1152.000000pt" height="1152.000000pt" viewBox="0 0 1152.000000 1152.000000"
 preserveAspectRatio="xMidYMid meet">
<metadata>
Created by potrace 1.14, written by Peter Selinger 2001-2017
</metadata>
<g transform="translate(0.000000,1152.000000) scale(0.100000,-0.100000)"
fill="#000000" stroke="none">
<path d="M5428 11515 c-1 -1 -43 -6 -92 -9 -91 -7 -147 -13 -201 -22 -16 -2
-52 -7 -80 -9 -27 -3 -57 -8 -65 -11 -8 -4 -31 -8 -50 -11 -19 -2 -46 -6 -60
-9 -14 -3 -34 -7 -45 -9 -58 -11 -84 -17 -120 -27 -22 -6 -47 -12 -55 -13 -8
-1 -35 -8 -60 -15 -25 -7 -49 -13 -55 -14 -34 -7 -298 -93 -330 -108 -12 -5
-27 -10 -35 -12 -8 -1 -31 -9 -50 -18 -19 -8 -57 -23 -85 -33 -27 -11 -52 -21
-55 -24 -3 -4 -11 -7 -18 -9 -24 -5 -299 -142 -337 -168 -20 -13 -38 -24 -41
-24 -6 0 -127 -81 -134 -90 -3 -3 -52 -42 -110 -85 -123 -92 -275 -211 -305
-240 -12 -11 -37 -33 -56 -48 -111 -93 -332 -323 -434 -452 -22 -28 -46 -57
-53 -65 -46 -54 -65 -79 -84 -110 -12 -19 -25 -37 -29 -40 -8 -6 -110 -164
-135 -210 -10 -19 -22 -37 -25 -40 -3 -3 -33 -59 -66 -125 -64 -129 -138 -308
-174 -421 -12 -38 -32 -101 -45 -139 -25 -80 -90 -340 -99 -400 -14 -100 -20
-228 -20 -455 0 -250 6 -342 31 -470 3 -14 7 -38 10 -55 4 -24 15 -77 29 -135
1 -3 5 -23 10 -45 5 -22 10 -42 10 -45 14 -60 78 -251 122 -365 33 -84 162
-354 201 -420 10 -16 31 -52 47 -80 16 -27 32 -52 35 -55 3 -3 17 -23 30 -45
49 -83 263 -358 333 -430 7 -7 46 -49 87 -95 194 -217 640 -660 663 -660 12 0
-2 -39 -21 -60 -24 -26 -112 -148 -112 -155 0 -4 -11 -21 -23 -38 -31 -42
-159 -304 -173 -352 -3 -11 -70 -178 -84 -210 -5 -11 -14 -39 -21 -62 -7 -24
-17 -43 -22 -43 -6 0 -8 -3 -5 -6 4 -3 -9 -49 -27 -102 -31 -92 -91 -280 -100
-319 -3 -10 -23 -88 -45 -173 -22 -85 -43 -171 -46 -190 -3 -19 -7 -42 -10
-50 -3 -8 -8 -26 -10 -40 -2 -14 -7 -41 -10 -60 -4 -19 -8 -48 -9 -65 -2 -16
-6 -43 -9 -60 -26 -129 -27 -838 -1 -967 3 -16 7 -40 9 -55 11 -76 35 -147 78
-236 21 -43 43 -83 48 -90 5 -7 23 -28 40 -47 16 -19 30 -38 30 -43 0 -4 4 -6
9 -2 5 3 12 1 16 -5 9 -15 62 -12 98 6 60 31 95 63 232 208 44 46 195 319 195
352 0 8 5 14 10 14 6 0 9 3 9 8 -2 9 18 62 42 108 10 21 19 44 19 51 0 7 4 13
8 13 4 0 8 10 9 21 1 12 8 29 16 38 8 9 18 27 22 41 4 14 14 34 21 45 12 17
14 18 15 2 1 -9 2 -20 3 -24 1 -5 6 -28 11 -53 5 -25 9 -47 10 -50 1 -3 5 -25
10 -50 10 -53 12 -59 15 -62 1 -2 3 -10 5 -18 1 -8 10 -49 19 -90 9 -41 17
-79 18 -85 0 -5 9 -33 18 -61 10 -27 21 -70 26 -95 9 -51 9 -49 17 -69 4 -8
18 -55 31 -105 38 -140 131 -445 146 -480 13 -32 23 -59 26 -75 5 -25 72 -188
110 -270 113 -240 248 -476 337 -590 139 -178 294 -319 387 -351 16 -6 30 -15
30 -20 0 -5 8 -9 18 -9 10 0 22 -4 27 -9 10 -9 115 -38 145 -40 8 0 35 -3 60
-6 60 -8 293 -13 304 -6 6 2 24 6 40 7 39 3 153 30 201 49 104 39 365 175 395
205 3 3 31 24 62 48 51 39 126 116 219 227 19 22 40 46 46 53 7 7 34 41 60 75
26 34 50 64 53 67 3 3 21 27 40 53 19 27 43 56 53 65 9 9 17 20 17 25 0 4 11
20 25 35 14 15 25 30 25 35 0 4 11 20 25 35 14 15 25 32 25 39 0 7 5 13 10 13
6 0 10 4 10 10 0 5 15 33 33 62 53 82 254 464 265 500 1 5 14 34 28 65 14 32
27 63 28 68 2 9 12 32 37 90 5 11 29 78 54 148 45 128 64 173 65 150 0 -25 88
-117 153 -161 58 -40 145 -65 205 -58 191 21 445 172 580 343 36 46 90 156 98
199 3 15 7 31 10 36 5 8 14 82 18 158 1 19 -1 50 -5 68 -4 17 -3 35 2 38 5 3
7 9 4 14 -3 5 -7 55 -10 112 -3 57 -7 114 -10 128 -3 14 -8 41 -11 60 -9 51
-9 50 -28 115 -10 33 -19 65 -20 72 -1 7 -5 16 -9 19 -4 4 -7 16 -7 26 0 10
-4 27 -10 38 -5 11 -14 29 -20 40 -5 11 -10 24 -10 30 0 18 -165 368 -179 380
-4 3 -18 26 -31 53 -14 26 -28 47 -32 47 -5 0 -8 6 -8 13 0 6 -13 32 -29 55
-29 44 -29 44 -14 100 8 32 16 64 18 72 2 8 11 44 20 80 9 36 18 81 20 100 5
36 39 73 93 101 15 8 53 28 85 46 31 18 57 29 57 25 0 -4 4 -2 8 4 4 6 27 21
52 35 25 13 51 30 58 37 7 6 18 12 23 12 14 0 148 100 244 181 86 74 378 368
461 465 111 130 266 363 288 432 4 12 12 22 17 22 5 0 9 7 9 16 0 8 10 34 23
57 13 23 36 71 51 107 16 36 40 90 53 120 13 30 28 64 33 75 14 31 82 206 85
219 1 6 5 20 9 31 37 97 94 333 110 455 4 25 9 62 12 82 3 21 7 59 8 85 1 26
5 53 8 59 8 12 2 936 -7 1034 -3 36 -7 88 -9 115 -6 69 -15 170 -22 230 -2 28
-7 75 -9 105 -3 30 -7 61 -10 70 -2 8 -7 33 -11 55 -3 22 -8 44 -11 48 -2 4
-6 20 -8 35 -5 33 -22 107 -25 107 -1 0 -3 7 -5 15 -11 56 -72 252 -102 330
-3 8 -7 20 -9 25 -25 100 -284 596 -341 653 -7 7 -13 17 -13 22 0 5 -6 15 -13
22 -7 7 -33 42 -59 78 -25 36 -54 75 -64 86 -11 12 -30 36 -44 54 -95 126
-380 407 -547 541 -118 94 -363 269 -377 269 -3 0 -24 13 -48 29 -116 78 -414
228 -598 300 -74 29 -144 57 -155 62 -31 13 -236 79 -297 95 -5 1 -9 2 -10 4
-2 1 -10 3 -18 5 -8 1 -44 11 -80 20 -36 9 -76 19 -89 21 -12 3 -53 12 -90 20
-36 9 -79 18 -96 21 -16 2 -46 8 -65 13 -19 4 -42 8 -50 9 -23 2 -92 10 -125
15 -42 7 -131 17 -190 22 -61 5 -672 14 -677 9z m2405 -7201 c16 -17 -76 -124
-106 -124 -18 0 -56 41 -50 56 3 7 28 24 56 37 80 38 90 41 100 31z m-1221
-272 c16 -16 0 -31 -32 -33 -21 -2 -143 15 -200 26 -8 2 -23 4 -32 4 -10 1
-18 4 -18 9 0 12 269 7 282 -6z"/>
</g>
</svg>
